<svg xmlns="http://www.w3.org/2000/svg" viewBox="0 0 1920 1920"><defs><style>.cls-1{fill:#829ea9;}.cls-2{fill:#fff;}.cls-3{fill:#ff3938;}</style></defs><g id="Layer_2" data-name="Layer 2"><path class="cls-1" d="M912.2,816.89l-65.59,314.93a10.11,10.11,0,0,1-4.85,6.71l-33.25,19.16a10.13,10.13,0,0,1-15.12-9.88L835.21,764a10.13,10.13,0,0,1,16.73-6.54l57,49.74A10.12,10.12,0,0,1,912.2,816.89Z"/><path class="cls-2" d="M827,758.91l-43.35,404.34a10.12,10.12,0,0,1-14.13,8.2l-57.07-25a10.13,10.13,0,0,1-6-8.54l-25-342.82a10.11,10.11,0,0,1,7.27-10.46L814.09,748.1A10.13,10.13,0,0,1,827,758.91Z"/><path class="cls-3" d="M680.1,1122.43l-160.41-39.69a11.13,11.13,0,0,1-8.42-9.7L492.54,889.55a11.17,11.17,0,0,1,8-11.84l160.12-47.07a11.16,11.16,0,0,1,14.27,9.92l19,270.25A11.16,11.16,0,0,1,680.1,1122.43Z"/><path class="cls-1" d="M493.19,1085.79l-21.89,9.41a11.16,11.16,0,0,1-15.52-9.25L437,877.3a11.15,11.15,0,0,1,15.71-11.16l23.72,10.74a11.16,11.16,0,0,1,6.52,9.17l16.95,188.49A11.18,11.18,0,0,1,493.19,1085.79Z"/><path class="cls-2" d="M430.41,1092.75h0a11.15,11.15,0,0,1-5.65-8.42L400.87,886.66a11.17,11.17,0,0,1,3.59-9.6l5-4.58a11.16,11.16,0,0,1,18.61,7.23L446.94,1082A11.16,11.16,0,0,1,430.41,1092.75Z"/><path class="cls-2" d="M571.64,900.16l-63.8,13.53c-1,.22-2-1-2.2-2.8h0c-.21-1.76.42-3.39,1.42-3.62l63.86-14.89c1.46-.35,2.82,1.14,3,3.3h0C574.14,897.85,573.11,899.85,571.64,900.16Z"/><path class="cls-2" d="M627.43,908.05l-117.9,19.62c-1,.17-2-1.11-2.2-2.85h0c-.21-1.74.43-3.31,1.43-3.5l118-22.09c1.92-.35,3.62,1.35,3.79,3.8h0C630.77,905.49,629.34,907.73,627.43,908.05Z"/><path class="cls-2" d="M608.22,929.67,511.08,941.5c-.94.12-1.85-1.09-2.05-2.7l0-.42c-.19-1.6.4-3,1.34-3.15l97.25-13.81c1.61-.23,3.06,1.32,3.23,3.47l0,.55C611,927.58,609.83,929.47,608.22,929.67Z"/><path class="cls-2" d="M541.45,952.91l-29.38,2.29c-.57,0-1.13-.7-1.24-1.67l-.33-2.65c-.11-1,.25-1.81.82-1.86l29.39-2.88c.68-.07,1.33.75,1.45,1.82l.31,2.91C542.59,951.94,542.13,952.85,541.45,952.91Z"/><path class="cls-2" d="M564.78,966.85,514,968.65c-.72,0-1.42-.93-1.57-2.15l-.2-1.69c-.15-1.22.31-2.24,1-2.28l50.84-2.78c1,0,1.89,1.06,2,2.49l.19,2C566.43,965.64,565.75,966.82,564.78,966.85Z"/><path class="cls-2" d="M644.66,982.79,516.09,982c-1,0-2-1.36-2.17-3h0c-.2-1.67.44-3,1.44-3l128.75-1.62c2,0,3.72,1.87,3.87,4.24h0C648.13,980.9,646.64,982.8,644.66,982.79Z"/><path class="cls-2" d="M550.1,996.7l-33.17-1.57c-.58,0-1.14-.83-1.26-1.78l-.3-2.49c-.12-1,.25-1.72.83-1.71l33.2,1c.71,0,1.38.9,1.49,2l.29,2.76C551.29,995.9,550.81,996.73,550.1,996.7Z"/><path class="cls-2" d="M591.42,1014.5l-72.51-6.33c-.8-.07-1.58-1.19-1.74-2.5l-.14-1.13c-.16-1.32.36-2.34,1.17-2.28l72.58,5c1.21.09,2.32,1.47,2.47,3.1l.12,1.39C593.51,1013.38,592.64,1014.6,591.42,1014.5Z"/><path class="cls-2" d="M942.79,893.5V813h15.12V893.5Zm13-37.09V847h17q5.55,0,8.16-2.94a11.19,11.19,0,0,0,2.61-7.72,11.53,11.53,0,0,0-2.61-7.94q-2.61-2.94-8.16-2.94h-17V813h15.55q13.49,0,20.5,5.65t7,16.21v1.63q0,7.4-3.54,11.8a19.1,19.1,0,0,1-9.73,6.25,49.75,49.75,0,0,1-14.25,1.85Zm0,37.09V881.1h19.9q5.33,0,8.21-3c1.92-2,2.88-4.73,2.88-8.21s-.94-6.18-2.82-8.11-4.65-2.88-8.27-2.88h-19.9v-9.46h18.81a49.1,49.1,0,0,1,14.2,1.9,19.24,19.24,0,0,1,9.78,6.36q3.54,4.47,3.54,12v1.52a22.25,22.25,0,0,1-3.1,12,19.79,19.79,0,0,1-9.25,7.61,38.05,38.05,0,0,1-15.17,2.67Z"/><path class="cls-2" d="M1041.76,895q-11.09,0-18.7-4.19a27.45,27.45,0,0,1-11.53-11.91,39.38,39.38,0,0,1-3.92-18V813.56h15.45v48.18a21.73,21.73,0,0,0,2.17,10,15.36,15.36,0,0,0,6.37,6.64,23.47,23.47,0,0,0,20.39,0,15.7,15.7,0,0,0,6.31-6.58,21.69,21.69,0,0,0,2.17-10V813.56h15.45v47.31a39.77,39.77,0,0,1-3.87,18,27.15,27.15,0,0,1-11.47,11.91Q1053,895,1041.76,895Z"/><path class="cls-2" d="M1085.81,893V813.56h15.12V893Zm13-66.34V813.56h35.12v13.05Zm0,32.52v-13h33.17v13Zm0,33.82V879.9h36V893Z"/><path class="cls-2" d="M1135.19,827.15V813.56h61.34v13.59Zm23,65.8V825h15.44v68Z"/><path class="cls-2" d="M995.77,1027.8q-13.93,0-23.93-4.92a48.4,48.4,0,0,1-16.4-12.81A53.31,53.31,0,0,1,946,992.9a58,58,0,0,1-3-18v-3.1a60,60,0,0,1,3.09-18.93,50.52,50.52,0,0,1,9.57-17,47.5,47.5,0,0,1,16.26-12.17q9.78-4.58,23.15-4.58a55.62,55.62,0,0,1,24.63,5.21,43.52,43.52,0,0,1,17.11,14.5,44.58,44.58,0,0,1,7.53,21.53H1021.1a21.67,21.67,0,0,0-4.57-10.55,23.28,23.28,0,0,0-9.08-6.69,31.49,31.49,0,0,0-12.39-2.32,30.4,30.4,0,0,0-12.24,2.32,23.48,23.48,0,0,0-8.94,6.69,30.9,30.9,0,0,0-5.49,10.34,43.69,43.69,0,0,0-1.9,13.3,43.14,43.14,0,0,0,1.9,13.16A30.2,30.2,0,0,0,974,997.05a24.14,24.14,0,0,0,9.22,6.75,31.85,31.85,0,0,0,12.53,2.33q10.69,0,18.08-5.21a21.17,21.17,0,0,0,8.94-14.36h23.08a45.21,45.21,0,0,1-24.56,35.61Q1010.56,1027.8,995.77,1027.8Z"/><path class="cls-2" d="M1086.41,1027.8q-13.94,0-23.51-4.5a34.09,34.09,0,0,1-14.56-12.18,31.55,31.55,0,0,1-5-17.66h22.52a13.18,13.18,0,0,0,2.18,7.32,15,15,0,0,0,6.69,5.42,28.49,28.49,0,0,0,11.68,2,30.16,30.16,0,0,0,10.84-1.69,14.54,14.54,0,0,0,6.61-4.72,11.32,11.32,0,0,0,2.25-7,9,9,0,0,0-4.22-7.81c-2.81-1.93-7.37-3.17-13.65-3.73l-7.74-.57q-15.35-1.39-24.49-9.64t-9.15-21.88A29.38,29.38,0,0,1,1064.73,923q8.44-3.87,20-3.87,12.1,0,20.76,4.23a31.29,31.29,0,0,1,13.3,11.75,32.66,32.66,0,0,1,4.65,17.52H1100.9a13.75,13.75,0,0,0-1.82-7,13.19,13.19,0,0,0-5.42-5.07,19,19,0,0,0-8.94-1.9,20,20,0,0,0-8.52,1.62,11.26,11.26,0,0,0-5.13,4.5,12.41,12.41,0,0,0-1.69,6.41,10.46,10.46,0,0,0,3.09,7.45c2.07,2.16,5.44,3.43,10.14,3.8l7.88.71a61.14,61.14,0,0,1,19.85,4.85,33,33,0,0,1,13.44,10.56,27,27,0,0,1,4.85,16.26,29.72,29.72,0,0,1-5.14,17.31,33.13,33.13,0,0,1-14.56,11.54Q1099.5,1027.8,1086.41,1027.8Z"/><path class="cls-2" d="M1133.84,1025V922.24h22.52V1025Zm19.7-83.61V922.24h43.92v19.14Zm0,41V963.2h41.67v19.14Zm0,42.65v-19.14h44.9V1025Z"/><path class="cls-2" d="M1225.89,1025V922.24H1249V1025Zm20.27-83.61V922.24h41.37v19.14Zm0,42.37V964.47h39.69v19.14Z"/><path class="cls-2" d="M1294.15,1025V922.24h22.52V1025Zm19.7-83.61V922.24h43.92v19.14Zm0,41V963.2h41.67v19.14Zm0,42.65v-19.14h44.9V1025Z"/><path class="cls-2" d="M1402.25,1027.8q-13.93,0-23.51-4.5a34.18,34.18,0,0,1-14.57-12.18,31.62,31.62,0,0,1-5-17.66h22.52a13.18,13.18,0,0,0,2.18,7.32,15.06,15.06,0,0,0,6.68,5.42,28.57,28.57,0,0,0,11.69,2,30.11,30.11,0,0,0,10.83-1.69,14.52,14.52,0,0,0,6.62-4.72,11.32,11.32,0,0,0,2.25-7,9,9,0,0,0-4.22-7.81q-4.23-2.89-13.65-3.73l-7.75-.57q-15.33-1.39-24.49-9.64t-9.15-21.88A29.41,29.41,0,0,1,1380.57,923q8.45-3.87,20-3.87,12.11,0,20.76,4.23a31.29,31.29,0,0,1,13.3,11.75,32.74,32.74,0,0,1,4.64,17.52h-22.52a13.66,13.66,0,0,0-1.83-7,13.13,13.13,0,0,0-5.42-5.07,18.89,18.89,0,0,0-8.93-1.9,20,20,0,0,0-8.52,1.62,11.34,11.34,0,0,0-5.14,4.5,12.5,12.5,0,0,0-1.68,6.41,10.46,10.46,0,0,0,3.09,7.45q3.09,3.24,10.14,3.8l7.88.71a61.08,61.08,0,0,1,19.84,4.85,33,33,0,0,1,13.44,10.56,26.92,26.92,0,0,1,4.86,16.26,29.72,29.72,0,0,1-5.14,17.31,33.1,33.1,0,0,1-14.57,11.54Q1415.34,1027.8,1402.25,1027.8Z"/><path class="cls-2" d="M1438.14,942.51V922.24h81.07v20.27Zm29,82.48v-85.3h23.08V1025Z"/><path class="cls-2" d="M944.86,1134.06v-15a22,22,0,0,1,1.55-8.59,16.87,16.87,0,0,1,5.1-6.49,42.36,42.36,0,0,1,9.44-5.42l13.31-5.9a19.7,19.7,0,0,0,7.62-5.53,13.19,13.19,0,0,0,2.58-8.42,12.42,12.42,0,0,0-3.33-9q-3.33-3.43-9.55-3.43t-9.61,3.49q-3.37,3.48-3.38,9.49h-14.7a28,28,0,0,1,3.06-13.09,22,22,0,0,1,9.23-9.28q6.17-3.39,15.4-3.38t15.34,3.32a22.7,22.7,0,0,1,9.23,8.86,24.76,24.76,0,0,1,3.12,12.39v1.4q0,8.8-4.94,14.65t-14.49,10l-13.3,5.9a14.34,14.34,0,0,0-5.26,3.38,7.13,7.13,0,0,0-1.51,4.78v6.87l-3.64-4h43.46v13Z"/><path class="cls-2" d="M1037.79,1136.1a36.67,36.67,0,0,1-15.72-3.06,28,28,0,0,1-10.52-8.31,34.88,34.88,0,0,1-5.9-12.18,55.85,55.85,0,0,1-1.88-14.65v-6a50.58,50.58,0,0,1,3.6-19.53,30.14,30.14,0,0,1,11.16-13.8q7.56-5.08,19.26-5.09t19.11,5.09a30.21,30.21,0,0,1,11.1,13.8,50.58,50.58,0,0,1,3.6,19.53v6a55.85,55.85,0,0,1-1.88,14.65,34.88,34.88,0,0,1-5.9,12.18,28,28,0,0,1-10.47,8.31A36,36,0,0,1,1037.79,1136.1Zm0-13.95q9.45,0,14-6.6t4.56-20.55q0-14.7-4.67-21.14t-13.9-6.44q-9.43,0-14.11,6.44t-4.67,20.92q0,14.07,4.62,20.72T1037.79,1122.15Z"/><path class="cls-2" d="M1077.18,1134.06v-15a22,22,0,0,1,1.55-8.59,16.87,16.87,0,0,1,5.1-6.49,42.22,42.22,0,0,1,9.45-5.42l13.3-5.9a19.55,19.55,0,0,0,7.62-5.53,13.19,13.19,0,0,0,2.58-8.42,12.42,12.42,0,0,0-3.33-9q-3.33-3.43-9.55-3.43t-9.6,3.49q-3.39,3.48-3.38,9.49h-14.71a28,28,0,0,1,3.06-13.09,22,22,0,0,1,9.23-9.28q6.18-3.39,15.4-3.38t15.35,3.32a22.76,22.76,0,0,1,9.23,8.86,24.86,24.86,0,0,1,3.11,12.39v1.4q0,8.8-4.94,14.65t-14.48,10l-13.31,5.9a14.34,14.34,0,0,0-5.26,3.38,7.18,7.18,0,0,0-1.5,4.78v6.87l-3.65-4h43.46v13Z"/><path class="cls-2" d="M1133.52,1117.86v-16.53l30.59-47.76,11.59,7.84-27,42.28,1.29,2.15H1198v12Zm41,16.2v-56.12h14.06v56.12Z"/></g></svg>