<svg xmlns="http://www.w3.org/2000/svg" viewBox="0 0 1080 1080"><defs><style>.cls-1{fill:#323949;}.cls-2{fill:#40445a;}.cls-3{fill:#4c5265;}.cls-4{font-size:151.25px;stroke-width:2.76px;}.cls-4,.cls-5{fill:#fff;stroke:#fff;stroke-miterlimit:10;font-family:Tinos-Bold, Tinos;font-weight:700;}.cls-5{font-size:100.98px;stroke-width:1.84px;}</style></defs><g id="Layer_2" data-name="Layer 2"><rect class="cls-1" x="81.08" y="175" width="917.84" height="730"/><rect class="cls-2" x="115.44" y="320.18" width="408.7" height="134.75"/><rect class="cls-2" x="115.81" y="471.78" width="408.7" height="268.66"/><rect class="cls-2" x="115.81" y="758.13" width="408.7" height="101.91"/><rect class="cls-2" x="553.92" y="320.18" width="408.7" height="224.03"/><rect class="cls-2" x="554.29" y="569.47" width="408.7" height="290.56"/><rect class="cls-1" x="136.3" y="345.68" width="296.44" height="12.42"/><rect class="cls-1" x="136.3" y="370.51" width="214.46" height="12.42"/><rect class="cls-1" x="136.3" y="395.34" width="365.97" height="12.42"/><rect class="cls-1" x="135.57" y="774.01" width="207.14" height="12.42"/><rect class="cls-1" x="135.57" y="828.11" width="204.21" height="12.42"/><rect class="cls-1" x="135.57" y="792.05" width="196.16" height="12.42"/><rect class="cls-1" x="135.57" y="810.08" width="63.68" height="12.42"/><rect class="cls-1" x="576.93" y="588.67" width="207.14" height="12.42"/><rect class="cls-1" x="576.93" y="642.76" width="244.47" height="12.42"/><rect class="cls-1" x="576.93" y="606.7" width="365.97" height="12.42"/><rect class="cls-1" x="576.93" y="624.73" width="95.88" height="12.42"/><rect class="cls-1" x="136.3" y="420.17" width="273.01" height="12.42"/><rect class="cls-1" x="137.03" y="639.22" width="126.63" height="10.89"/><rect class="cls-1" x="136.3" y="655.94" width="152.24" height="10.89"/><rect class="cls-1" x="137.03" y="672.67" width="62.95" height="10.89"/><rect class="cls-1" x="318.56" y="540.58" width="154.74" height="12.42"/><rect class="cls-1" x="318.56" y="563.54" width="179.33" height="12.42"/><rect class="cls-1" x="318.56" y="494.66" width="154.74" height="12.42"/><rect class="cls-1" x="318.56" y="517.62" width="179.33" height="12.42"/><rect class="cls-1" x="318.56" y="586.5" width="191.04" height="12.42"/><rect class="cls-1" x="318.56" y="609.46" width="142.51" height="12.42"/><rect class="cls-1" x="318.56" y="632.42" width="181.52" height="12.42"/><rect class="cls-1" x="318.56" y="655.38" width="105.83" height="12.42"/><rect class="cls-1" x="318.56" y="678.33" width="179.33" height="12.42"/><rect class="cls-1" x="318.56" y="701.29" width="142.51" height="12.42"/><rect class="cls-1" x="578.4" y="349.22" width="157.7" height="12.42"/><rect class="cls-1" x="578.4" y="372.28" width="114.09" height="12.42"/><rect class="cls-1" x="578.4" y="395.34" width="181.52" height="12.42"/><rect class="cls-1" x="784.07" y="349.22" width="126.28" height="12.42"/><rect class="cls-1" x="784.07" y="372.28" width="160.3" height="12.42"/><rect class="cls-1" x="784.07" y="395.34" width="136.87" height="12.42"/><rect class="cls-1" x="784.07" y="418.4" width="160.3" height="12.42"/><rect class="cls-1" x="784.07" y="441.45" width="117.11" height="12.42"/><rect class="cls-1" x="784.07" y="464.51" width="86.37" height="12.42"/><rect class="cls-1" x="784.07" y="487.57" width="142.73" height="12.42"/><rect class="cls-1" x="784.58" y="507.96" width="159.79" height="12.42"/><rect class="cls-1" x="578.4" y="488.45" width="126.63" height="12.42"/><rect class="cls-1" x="578.9" y="508.85" width="138.56" height="12.42"/><rect class="cls-1" x="788.46" y="792.94" width="126.63" height="10.89"/><rect class="cls-1" x="788.46" y="809.95" width="152.24" height="10.89"/><rect class="cls-1" x="788.46" y="826.97" width="62.95" height="10.89"/><rect class="cls-1" x="788.46" y="741.88" width="101.01" height="10.89"/><rect class="cls-1" x="788.46" y="758.9" width="152.24" height="10.89"/><rect class="cls-1" x="788.46" y="775.92" width="62.95" height="10.89"/><rect class="cls-1" x="788.46" y="690.82" width="126.63" height="10.89"/><rect class="cls-1" x="788.46" y="673.8" width="126.63" height="10.89"/><rect class="cls-1" x="788.46" y="707.84" width="152.24" height="10.89"/><rect class="cls-1" x="788.46" y="724.86" width="139.07" height="10.89"/><rect class="cls-1" x="628.94" y="676.37" width="2.88" height="152.57"/><path class="cls-1" d="M766.5,830.52H577V675.1H766.5Zm-186.63-3.17H763.62V678.27H579.87Z"/><rect class="cls-1" x="578.68" y="700.19" width="186.39" height="3.17"/><rect class="cls-1" x="579.42" y="718.51" width="185.64" height="3.17"/><rect class="cls-1" x="579.42" y="736.83" width="185.64" height="3.17"/><rect class="cls-1" x="579.42" y="755.15" width="185.64" height="3.17"/><rect class="cls-1" x="578.92" y="773.48" width="186.14" height="3.17"/><rect class="cls-1" x="578.43" y="791.79" width="186.63" height="3.17"/><rect class="cls-1" x="579.42" y="810.11" width="185.64" height="3.17"/><rect class="cls-1" x="673.3" y="702.05" width="2.88" height="126.57"/><rect class="cls-1" x="711.44" y="676.37" width="2.88" height="152.25"/><rect class="cls-1" x="763.62" y="676.37" width="2.88" height="152.57"/><polygon class="cls-1" points="137.33 628.6 150.76 607.36 164.2 556.31 177.64 578.67 191.08 566.74 204.52 570.47 217.96 549.23 231.4 595.06 244.83 566.74 258.27 579.41 271.71 541.4 285.15 554.1 285.15 628.6 137.33 628.6"/><path class="cls-1" d="M137.33,629.37c-.3,0-.54-.34-.54-.75v-111c0-.41.24-.75.54-.75s.53.34.53.75v111C137.86,629,137.62,629.37,137.33,629.37Z"/><path class="cls-1" d="M285.15,629.34H137.33c-.3,0-.54-.33-.54-.74s.24-.75.54-.75H285.15c.3,0,.54.34.54.75S285.45,629.34,285.15,629.34Z"/><ellipse class="cls-1" cx="619.42" cy="426.47" rx="3.63" ry="4.39"/><ellipse class="cls-1" cx="605.48" cy="441.74" rx="3.63" ry="4.39"/><ellipse class="cls-1" cx="633.36" cy="441.74" rx="3.63" ry="4.39"/><ellipse class="cls-1" cx="619.42" cy="457.14" rx="3.63" ry="4.39"/><ellipse class="cls-1" cx="647.3" cy="457.14" rx="3.63" ry="4.39"/><ellipse class="cls-1" cx="591.54" cy="457.14" rx="3.63" ry="4.39"/><polygon class="cls-1" points="632.88 442.31 618.94 427.4 620.02 425.91 633.97 440.82 632.88 442.31"/><polygon class="cls-1" points="606.08 442.31 605 440.82 618.94 425.91 620.02 427.4 606.08 442.31"/><polygon class="cls-1" points="620.03 457.7 618.93 456.23 632.87 440.83 633.98 442.3 620.03 457.7"/><polygon class="cls-1" points="646.81 457.7 632.87 442.3 633.98 440.83 647.92 456.23 646.81 457.7"/><polygon class="cls-1" points="592.15 457.7 591.05 456.23 604.99 440.83 606.09 442.3 592.15 457.7"/><ellipse class="cls-1" cx="696.65" cy="423.47" rx="3.63" ry="4.39"/><ellipse class="cls-1" cx="682.71" cy="438.75" rx="3.63" ry="4.39"/><ellipse class="cls-1" cx="710.59" cy="438.75" rx="3.63" ry="4.39"/><ellipse class="cls-1" cx="696.65" cy="454.15" rx="3.63" ry="4.39"/><ellipse class="cls-1" cx="724.53" cy="454.15" rx="3.63" ry="4.39"/><ellipse class="cls-1" cx="683.06" cy="469.87" rx="3.63" ry="4.39"/><ellipse class="cls-1" cx="710.94" cy="469.87" rx="3.63" ry="4.39"/><ellipse class="cls-1" cx="668.77" cy="454.15" rx="3.63" ry="4.39"/><polygon class="cls-1" points="710.11 439.31 696.17 424.41 697.25 422.92 711.2 437.82 710.11 439.31"/><polygon class="cls-1" points="683.31 439.31 682.23 437.82 696.17 422.92 697.25 424.41 683.31 439.31"/><polygon class="cls-1" points="724.04 454.7 710.1 439.3 711.21 437.83 725.15 453.24 724.04 454.7"/><polygon class="cls-1" points="669.38 454.7 668.28 453.24 682.22 437.83 683.32 439.3 669.38 454.7"/><polygon class="cls-1" points="696.1 455.17 681.89 439.45 682.99 437.98 697.2 453.7 696.1 455.17"/><polygon class="cls-1" points="682.2 470.51 667.99 454.79 669.09 453.32 683.3 469.05 682.2 470.51"/><polygon class="cls-1" points="710.63 470.53 695.8 454.81 696.88 453.31 711.71 469.03 710.63 470.53"/><ellipse class="cls-1" cx="401.3" cy="786.52" rx="3.63" ry="4.39"/><ellipse class="cls-1" cx="387.36" cy="801.8" rx="3.63" ry="4.39"/><ellipse class="cls-1" cx="415.24" cy="801.8" rx="3.63" ry="4.39"/><ellipse class="cls-1" cx="401.3" cy="817.2" rx="3.63" ry="4.39"/><ellipse class="cls-1" cx="429.18" cy="817.2" rx="3.63" ry="4.39"/><ellipse class="cls-1" cx="373.42" cy="817.2" rx="3.63" ry="4.39"/><polygon class="cls-1" points="414.76 802.36 400.82 787.46 401.91 785.96 415.85 800.87 414.76 802.36"/><polygon class="cls-1" points="387.96 802.36 386.88 800.87 400.82 785.96 401.91 787.46 387.96 802.36"/><polygon class="cls-1" points="401.92 817.75 400.81 816.28 414.75 800.88 415.86 802.35 401.92 817.75"/><polygon class="cls-1" points="428.69 817.75 414.75 802.35 415.86 800.88 429.8 816.28 428.69 817.75"/><polygon class="cls-1" points="374.03 817.75 372.93 816.28 386.87 800.88 387.98 802.35 374.03 817.75"/><ellipse class="cls-1" cx="478.53" cy="783.52" rx="3.63" ry="4.39"/><ellipse class="cls-1" cx="464.59" cy="798.8" rx="3.63" ry="4.39"/><ellipse class="cls-1" cx="492.47" cy="798.8" rx="3.63" ry="4.39"/><ellipse class="cls-1" cx="478.53" cy="814.2" rx="3.63" ry="4.39"/><ellipse class="cls-1" cx="506.41" cy="814.2" rx="3.63" ry="4.39"/><ellipse class="cls-1" cx="464.94" cy="829.92" rx="3.63" ry="4.39"/><ellipse class="cls-1" cx="492.82" cy="829.92" rx="3.63" ry="4.39"/><ellipse class="cls-1" cx="450.65" cy="814.2" rx="3.63" ry="4.39"/><polygon class="cls-1" points="491.99 799.37 478.05 784.46 479.14 782.97 493.08 797.87 491.99 799.37"/><polygon class="cls-1" points="465.19 799.37 464.11 797.87 478.05 782.97 479.14 784.46 465.19 799.37"/><polygon class="cls-1" points="505.92 814.75 491.98 799.35 493.09 797.88 507.03 813.29 505.92 814.75"/><polygon class="cls-1" points="451.26 814.75 450.16 813.29 464.1 797.88 465.2 799.35 451.26 814.75"/><polygon class="cls-1" points="477.98 815.22 463.77 799.5 464.87 798.03 479.08 813.75 477.98 815.22"/><polygon class="cls-1" points="464.08 830.57 449.87 814.85 450.97 813.38 465.18 829.1 464.08 830.57"/><polygon class="cls-1" points="492.51 830.58 477.68 814.86 478.76 813.36 493.59 829.08 492.51 830.58"/><rect class="cls-3" x="114.91" y="210.72" width="848.08" height="89.38"/></g><g id="Layer_3" data-name="Layer 3"><text class="cls-4" transform="translate(236.77 507.56)">POSTER</text><text class="cls-5" transform="translate(149.08 610.13)">PRESENTATION</text></g></svg>